<?xml version="1.0" ?>
<svg xmlns="http://www.w3.org/2000/svg" xmlns:ev="http://www.w3.org/2001/xml-events" xmlns:xlink="http://www.w3.org/1999/xlink" baseProfile="full" height="200" version="1.1" width="1000">
	<defs>
		<style type="text/css"><![CDATA[.tree-sequence .background path {fill: #808080; fill-opacity:0}.tree-sequence .background path:nth-child(odd) {fill-opacity:.1}.axes {font-size: 14px}.x-axis .tick .lab {font-weight: bold}.axes, .tree {font-size: 14px; text-anchor:middle}.y-axis line.grid {stroke: #FAFAFA}.y-axis > .lab text {transform: translateX(0.8em) rotate(-90deg)}.x-axis .tick g {transform: translateY(0.9em)}.x-axis > .lab text {transform: translateY(-0.8em)}.axes line, .edge {stroke:black; fill:none}.node > .sym {fill: black; stroke: none}.site > .sym {stroke: black}.mut text {fill: red; font-style: italic}.mut line {fill: none; stroke: none}.mut .sym {fill: none; stroke: red}.node .mut .sym {stroke-width: 1.5px}.tree text, .tree-sequence text {dominant-baseline: central}.plotbox .lab.lft {text-anchor: end}.plotbox .lab.rgt {text-anchor: start}]]></style>
	</defs>
	<g class="tree-sequence">
		<g class="background">
			<path d="M20,0 l192,0 l0,155 l-134.638,25 l0,5 l-57.3623,0 l0,-5 l0,-25 l0,-155z"/>
			<path d="M212,0 l192,0 l0,155 l376.883,25 l0,5 l-703.52,0 l0,-5 l134.638,-25 l0,-155z"/>
			<path d="M404,0 l192,0 l0,155 l294.091,25 l0,5 l-109.208,0 l0,-5 l-376.883,-25 l0,-155z"/>
			<path d="M596,0 l192,0 l0,155 l105.883,25 l0,5 l-3.79176,0 l0,-5 l-294.091,-25 l0,-155z"/>
			<path d="M788,0 l192,0 l0,155 l0,25 l0,5 l-86.1174,0 l0,-5 l-105.883,-25 l0,-155z"/>
		</g>
		<g class="axes">
			<g class="x-axis">
				<line x1="20" x2="980" y1="180" y2="180"/>
				<g class="tick" transform="translate(20 180)">
					<line x1="0" x2="0" y1="0" y2="5"/>
					<g class="lab" transform="translate(0,5)">
						<text>0.00</text>
					</g>
				</g>
				<g class="tick" transform="translate(77.3623 180)">
					<line x1="0" x2="0" y1="0" y2="5"/>
					<g class="lab" transform="translate(0,5)">
						<text>0.06</text>
					</g>
				</g>
				<g class="tick" transform="translate(780.883 180)">
					<line x1="0" x2="0" y1="0" y2="5"/>
					<g class="lab" transform="translate(0,5)">
						<text>0.79</text>
					</g>
				</g>
				<g class="tick" transform="translate(890.091 180)">
					<line x1="0" x2="0" y1="0" y2="5"/>
					<g class="lab" transform="translate(0,5)">
						<text>0.91</text>
					</g>
				</g>
				<g class="tick" transform="translate(893.883 180)">
					<line x1="0" x2="0" y1="0" y2="5"/>
					<g class="lab" transform="translate(0,5)">
						<text>0.91</text>
					</g>
				</g>
				<g class="tick" transform="translate(980 180)">
					<line x1="0" x2="0" y1="0" y2="5"/>
					<g class="lab" transform="translate(0,5)">
						<text>1.00</text>
					</g>
				</g>
				<g class="site s0" transform="translate(68 180)">
					<line class="sym" x1="0" x2="0" y1="0" y2="-10"/>
					<g class="mut m2">
						<polyline class="sym" points="2.5,-6.5 0,-1.5 -2.5,-6.5"/>
					</g>
					<g class="mut m1">
						<polyline class="sym" points="2.5,-10.5 0,-5.5 -2.5,-10.5"/>
					</g>
					<g class="mut m0">
						<polyline class="sym" points="2.5,-14.5 0,-9.5 -2.5,-14.5"/>
					</g>
				</g>
				<g class="site s1" transform="translate(77.6 180)">
					<line class="sym" x1="0" x2="0" y1="0" y2="-10"/>
					<g class="mut m4">
						<polyline class="sym" points="2.5,-6.5 0,-1.5 -2.5,-6.5"/>
					</g>
					<g class="mut m3">
						<polyline class="sym" points="2.5,-10.5 0,-5.5 -2.5,-10.5"/>
					</g>
				</g>
				<g class="site s2" transform="translate(308 180)">
					<line class="sym" x1="0" x2="0" y1="0" y2="-10"/>
					<g class="mut m5">
						<polyline class="sym" points="2.5,-6.5 0,-1.5 -2.5,-6.5"/>
					</g>
				</g>
				<g class="site s3" transform="translate(500 180)">
					<line class="sym" x1="0" x2="0" y1="0" y2="-10"/>
				</g>
			</g>
		</g>
		<g class="plotbox trees">
			<g class="tree t0" transform="translate(20 0)">
				<g class="plotbox">
					<g class="m0 m1 node n9 p0 root s0" transform="translate(96 32.9982)">
						<g class="a9 node n4 p0" transform="translate(-38 100.267)">
							<g class="a4 leaf node n0 p0 sample" transform="translate(-19 4.93523)">
								<path class="edge" d="M 0 0 V -4.93523 H 19"/>
								<rect class="sym" height="6" width="6" x="-3" y="-3"/>
								<text class="lab" transform="translate(0 11)">0</text>
							</g>
							<g class="a4 leaf node n1 p0 sample" transform="translate(19 4.93523)">
								<path class="edge" d="M 0 0 V -4.93523 H -19"/>
								<rect class="sym" height="6" width="6" x="-3" y="-3"/>
								<text class="lab" transform="translate(0 11)">1</text>
							</g>
							<path class="edge" d="M 0 0 V -100.267 H 38"/>
							<circle class="sym" cx="0" cy="0" r="3"/>
							<text class="lab lft" transform="translate(-3 -7.0)">4</text>
						</g>
						<g class="a9 m2 node n5 p0 s0" transform="translate(38 71.1942)">
							<g class="a5 leaf node n2 p0 sample" transform="translate(-19 34.0076)">
								<path class="edge" d="M 0 0 V -34.0076 H 19"/>
								<rect class="sym" height="6" width="6" x="-3" y="-3"/>
								<text class="lab" transform="translate(0 11)">2</text>
							</g>
							<g class="a5 leaf node n3 p0 sample" transform="translate(19 34.0076)">
								<path class="edge" d="M 0 0 V -34.0076 H -19"/>
								<rect class="sym" height="6" width="6" x="-3" y="-3"/>
								<text class="lab" transform="translate(0 11)">3</text>
							</g>
							<path class="edge" d="M 0 0 V -71.1942 H -38"/>
							<g class="mut m2 s0" transform="translate(0 -70.8175)">
								<line x1="0" x2="0" y1="0" y2="70.8175"/>
								<path class="sym" d="M -3,-3 l 6,6 M -3,3 l 6,-6"/>
								<text class="lab rgt" transform="translate(5 0)">2</text>
							</g>
							<circle class="sym" cx="0" cy="0" r="3"/>
							<text class="lab rgt" transform="translate(3 -7.0)">5</text>
						</g>
						<path class="edge" d="M 0 0 V -21.0202 H 0"/>
						<g class="mut m0 s0" transform="translate(0 -21.0202)">
							<line x1="0" x2="0" y1="0" y2="21.0202"/>
							<path class="sym" d="M -3,-3 l 6,6 M -3,3 l 6,-6"/>
							<text class="lab rgt" transform="translate(5 0)">0</text>
						</g>
						<g class="mut m1 s0" transform="translate(0 -0.0763152)">
							<line x1="0" x2="0" y1="0" y2="0.0763152"/>
							<path class="sym" d="M -3,-3 l 6,6 M -3,3 l 6,-6"/>
							<text class="lab rgt" transform="translate(5 0)">1</text>
						</g>
						<circle class="sym" cx="0" cy="0" r="3"/>
						<text class="lab rgt" transform="translate(3 -7.0)">9</text>
					</g>
				</g>
			</g>
			<g class="tree t1" transform="translate(212 0)">
				<g class="plotbox">
					<g class="m5 node n7 p0 root s2" transform="translate(96 54.332)">
						<g class="a7 m3 m4 node n4 p0 s1" transform="translate(-38 78.9328)">
							<g class="a4 leaf node n0 p0 sample" transform="translate(-19 4.93523)">
								<path class="edge" d="M 0 0 V -4.93523 H 19"/>
								<rect class="sym" height="6" width="6" x="-3" y="-3"/>
								<text class="lab" transform="translate(0 11)">0</text>
							</g>
							<g class="a4 leaf node n1 p0 sample" transform="translate(19 4.93523)">
								<path class="edge" d="M 0 0 V -4.93523 H -19"/>
								<rect class="sym" height="6" width="6" x="-3" y="-3"/>
								<text class="lab" transform="translate(0 11)">1</text>
							</g>
							<path class="edge" d="M 0 0 V -78.9328 H 38"/>
							<g class="mut m3 s1" transform="translate(0 -38.5644)">
								<line x1="0" x2="0" y1="0" y2="38.5644"/>
								<path class="sym" d="M -3,-3 l 6,6 M -3,3 l 6,-6"/>
								<text class="lab lft" transform="translate(-5 0)">3</text>
							</g>
							<g class="mut m4 s1" transform="translate(0 -36.7789)">
								<line x1="0" x2="0" y1="0" y2="36.7789"/>
								<path class="sym" d="M -3,-3 l 6,6 M -3,3 l 6,-6"/>
								<text class="lab lft" transform="translate(-5 0)">4</text>
							</g>
							<circle class="sym" cx="0" cy="0" r="3"/>
							<text class="lab lft" transform="translate(-3 -7.0)">4</text>
						</g>
						<g class="a7 node n5 p0" transform="translate(38 49.8604)">
							<g class="a5 leaf node n2 p0 sample" transform="translate(-19 34.0076)">
								<path class="edge" d="M 0 0 V -34.0076 H 19"/>
								<rect class="sym" height="6" width="6" x="-3" y="-3"/>
								<text class="lab" transform="translate(0 11)">2</text>
							</g>
							<g class="a5 leaf node n3 p0 sample" transform="translate(19 34.0076)">
								<path class="edge" d="M 0 0 V -34.0076 H -19"/>
								<rect class="sym" height="6" width="6" x="-3" y="-3"/>
								<text class="lab" transform="translate(0 11)">3</text>
							</g>
							<path class="edge" d="M 0 0 V -49.8604 H -38"/>
							<circle class="sym" cx="0" cy="0" r="3"/>
							<text class="lab rgt" transform="translate(3 -7.0)">5</text>
						</g>
						<path class="edge" d="M 0 0 V -25.2961 H 0"/>
						<g class="mut m5 s2" transform="translate(0 -25.2961)">
							<line x1="0" x2="0" y1="0" y2="25.2961"/>
							<path class="sym" d="M -3,-3 l 6,6 M -3,3 l 6,-6"/>
							<text class="lab rgt" transform="translate(5 0)">5</text>
						</g>
						<circle class="sym" cx="0" cy="0" r="3"/>
						<text class="lab rgt" transform="translate(3 -7.0)">7</text>
					</g>
				</g>
			</g>
			<g class="tree t2" transform="translate(404 0)">
				<g class="plotbox">
					<g class="node n6 p0 root" transform="translate(96 92.146)">
						<g class="a6 node n4 p0" transform="translate(-38 41.1187)">
							<g class="a4 leaf node n0 p0 sample" transform="translate(-19 4.93523)">
								<path class="edge" d="M 0 0 V -4.93523 H 19"/>
								<rect class="sym" height="6" width="6" x="-3" y="-3"/>
								<text class="lab" transform="translate(0 11)">0</text>
							</g>
							<g class="a4 leaf node n1 p0 sample" transform="translate(19 4.93523)">
								<path class="edge" d="M 0 0 V -4.93523 H -19"/>
								<rect class="sym" height="6" width="6" x="-3" y="-3"/>
								<text class="lab" transform="translate(0 11)">1</text>
							</g>
							<path class="edge" d="M 0 0 V -41.1187 H 38"/>
							<circle class="sym" cx="0" cy="0" r="3"/>
							<text class="lab lft" transform="translate(-3 -7.0)">4</text>
						</g>
						<g class="a6 node n5 p0" transform="translate(38 12.0464)">
							<g class="a5 leaf node n2 p0 sample" transform="translate(-19 34.0076)">
								<path class="edge" d="M 0 0 V -34.0076 H 19"/>
								<rect class="sym" height="6" width="6" x="-3" y="-3"/>
								<text class="lab" transform="translate(0 11)">2</text>
							</g>
							<g class="a5 leaf node n3 p0 sample" transform="translate(19 34.0076)">
								<path class="edge" d="M 0 0 V -34.0076 H -19"/>
								<rect class="sym" height="6" width="6" x="-3" y="-3"/>
								<text class="lab" transform="translate(0 11)">3</text>
							</g>
							<path class="edge" d="M 0 0 V -12.0464 H -38"/>
							<circle class="sym" cx="0" cy="0" r="3"/>
							<text class="lab rgt" transform="translate(3 -7.0)">5</text>
						</g>
						<path class="edge" d="M 0 0 V -15.2073 H 0"/>
						<circle class="sym" cx="0" cy="0" r="3"/>
						<text class="lab rgt" transform="translate(3 -7.0)">6</text>
					</g>
				</g>
			</g>
			<g class="tree t3" transform="translate(596 0)">
				<g class="plotbox">
					<g class="node n7 p0 root" transform="translate(96 54.332)">
						<g class="a7 node n4 p0" transform="translate(-38 78.9328)">
							<g class="a4 leaf node n0 p0 sample" transform="translate(-19 4.93523)">
								<path class="edge" d="M 0 0 V -4.93523 H 19"/>
								<rect class="sym" height="6" width="6" x="-3" y="-3"/>
								<text class="lab" transform="translate(0 11)">0</text>
							</g>
							<g class="a4 leaf node n1 p0 sample" transform="translate(19 4.93523)">
								<path class="edge" d="M 0 0 V -4.93523 H -19"/>
								<rect class="sym" height="6" width="6" x="-3" y="-3"/>
								<text class="lab" transform="translate(0 11)">1</text>
							</g>
							<path class="edge" d="M 0 0 V -78.9328 H 38"/>
							<circle class="sym" cx="0" cy="0" r="3"/>
							<text class="lab lft" transform="translate(-3 -7.0)">4</text>
						</g>
						<g class="a7 node n5 p0" transform="translate(38 49.8604)">
							<g class="a5 leaf node n2 p0 sample" transform="translate(-19 34.0076)">
								<path class="edge" d="M 0 0 V -34.0076 H 19"/>
								<rect class="sym" height="6" width="6" x="-3" y="-3"/>
								<text class="lab" transform="translate(0 11)">2</text>
							</g>
							<g class="a5 leaf node n3 p0 sample" transform="translate(19 34.0076)">
								<path class="edge" d="M 0 0 V -34.0076 H -19"/>
								<rect class="sym" height="6" width="6" x="-3" y="-3"/>
								<text class="lab" transform="translate(0 11)">3</text>
							</g>
							<path class="edge" d="M 0 0 V -49.8604 H -38"/>
							<circle class="sym" cx="0" cy="0" r="3"/>
							<text class="lab rgt" transform="translate(3 -7.0)">5</text>
						</g>
						<path class="edge" d="M 0 0 V -15.2073 H 0"/>
						<circle class="sym" cx="0" cy="0" r="3"/>
						<text class="lab rgt" transform="translate(3 -7.0)">7</text>
					</g>
				</g>
			</g>
			<g class="tree t4" transform="translate(788 0)">
				<g class="plotbox">
					<g class="node n8 p0 root" transform="translate(96 46.0288)">
						<g class="a8 node n4 p0" transform="translate(-38 87.236)">
							<g class="a4 leaf node n0 p0 sample" transform="translate(-19 4.93523)">
								<path class="edge" d="M 0 0 V -4.93523 H 19"/>
								<rect class="sym" height="6" width="6" x="-3" y="-3"/>
								<text class="lab" transform="translate(0 11)">0</text>
							</g>
							<g class="a4 leaf node n1 p0 sample" transform="translate(19 4.93523)">
								<path class="edge" d="M 0 0 V -4.93523 H -19"/>
								<rect class="sym" height="6" width="6" x="-3" y="-3"/>
								<text class="lab" transform="translate(0 11)">1</text>
							</g>
							<path class="edge" d="M 0 0 V -87.236 H 38"/>
							<circle class="sym" cx="0" cy="0" r="3"/>
							<text class="lab lft" transform="translate(-3 -7.0)">4</text>
						</g>
						<g class="a8 node n5 p0" transform="translate(38 58.1636)">
							<g class="a5 leaf node n2 p0 sample" transform="translate(-19 34.0076)">
								<path class="edge" d="M 0 0 V -34.0076 H 19"/>
								<rect class="sym" height="6" width="6" x="-3" y="-3"/>
								<text class="lab" transform="translate(0 11)">2</text>
							</g>
							<g class="a5 leaf node n3 p0 sample" transform="translate(19 34.0076)">
								<path class="edge" d="M 0 0 V -34.0076 H -19"/>
								<rect class="sym" height="6" width="6" x="-3" y="-3"/>
								<text class="lab" transform="translate(0 11)">3</text>
							</g>
							<path class="edge" d="M 0 0 V -58.1636 H -38"/>
							<circle class="sym" cx="0" cy="0" r="3"/>
							<text class="lab rgt" transform="translate(3 -7.0)">5</text>
						</g>
						<path class="edge" d="M 0 0 V -15.2073 H 0"/>
						<circle class="sym" cx="0" cy="0" r="3"/>
						<text class="lab rgt" transform="translate(3 -7.0)">8</text>
					</g>
				</g>
			</g>
		</g>
	</g>
</svg>
