<?xml version="1.0" ?>
<svg xmlns="http://www.w3.org/2000/svg" xmlns:ev="http://www.w3.org/2001/xml-events" xmlns:xlink="http://www.w3.org/1999/xlink" baseProfile="full" height="200" version="1.1" width="1000">
	<defs>
		<style type="text/css"><![CDATA[.tree-sequence .background path {fill: #808080; fill-opacity:0}.tree-sequence .background path:nth-child(odd) {fill-opacity:.1}.axes {font-size: 14px}.x-axis .tick .lab {font-weight: bold}.axes, .tree {font-size: 14px; text-anchor:middle}.y-axis line.grid {stroke: #FAFAFA}.y-axis > .lab text {transform: translateX(0.8em) rotate(-90deg)}.x-axis .tick g {transform: translateY(0.9em)}.x-axis > .lab text {transform: translateY(-0.8em)}.axes line, .edge {stroke:black; fill:none}.node > .sym {fill: black; stroke: none}.site > .sym {stroke: black}.mut text {fill: red; font-style: italic}.mut line {fill: none; stroke: none}.mut .sym {fill: none; stroke: red}.node .mut .sym {stroke-width: 1.5px}.tree text, .tree-sequence text {dominant-baseline: central}.plotbox .lab.lft {text-anchor: end}.plotbox .lab.rgt {text-anchor: start}]]></style>
	</defs>
	<g class="tree-sequence">
		<g class="axes">
			<g class="x-axis">
				<line x1="20" x2="980" y1="180" y2="180"/>
				<g class="tick" transform="translate(20 180)">
					<line x1="0" x2="0" y1="-5" y2="5"/>
					<g class="lab" transform="translate(0,5)">
						<text>0.00</text>
					</g>
				</g>
				<g class="tick" transform="translate(212 180)">
					<line x1="0" x2="0" y1="-5" y2="5"/>
					<g class="lab" transform="translate(0,5)">
						<text>0.06</text>
					</g>
				</g>
				<g class="tick" transform="translate(404 180)">
					<line x1="0" x2="0" y1="-5" y2="5"/>
					<g class="lab" transform="translate(0,5)">
						<text>0.79</text>
					</g>
				</g>
				<g class="tick" transform="translate(596 180)">
					<line x1="0" x2="0" y1="-5" y2="5"/>
					<g class="lab" transform="translate(0,5)">
						<text>0.91</text>
					</g>
				</g>
				<g class="tick" transform="translate(788 180)">
					<line x1="0" x2="0" y1="-5" y2="5"/>
					<g class="lab" transform="translate(0,5)">
						<text>0.91</text>
					</g>
				</g>
				<g class="tick" transform="translate(980 180)">
					<line x1="0" x2="0" y1="-5" y2="5"/>
					<g class="lab" transform="translate(0,5)">
						<text>1.00</text>
					</g>
				</g>
			</g>
		</g>
		<g class="plotbox trees">
			<g class="tree t0" transform="translate(20 0)">
				<g class="plotbox">
					<g class="m0 m1 node n9 p0 root s0" transform="translate(96 25.9111)">
						<g class="a9 node n4 p0" transform="translate(-38 125.684)">
							<g class="a4 leaf node n0 p0 sample" transform="translate(-19 1.60461)">
								<path class="edge" d="M 0 0 V -1.60461 H 19"/>
								<rect class="sym" height="6" width="6" x="-3" y="-3"/>
								<text class="lab" transform="translate(0 11)">0</text>
							</g>
							<g class="a4 leaf node n1 p0 sample" transform="translate(19 1.60461)">
								<path class="edge" d="M 0 0 V -1.60461 H -19"/>
								<rect class="sym" height="6" width="6" x="-3" y="-3"/>
								<text class="lab" transform="translate(0 11)">1</text>
							</g>
							<path class="edge" d="M 0 0 V -125.684 H 38"/>
							<circle class="sym" cx="0" cy="0" r="3"/>
							<text class="lab lft" transform="translate(-3 -7.0)">4</text>
						</g>
						<g class="a9 m2 node n5 p0 s0" transform="translate(38 111.724)">
							<g class="a5 leaf node n2 p0 sample" transform="translate(-19 15.5649)">
								<path class="edge" d="M 0 0 V -15.5649 H 19"/>
								<rect class="sym" height="6" width="6" x="-3" y="-3"/>
								<text class="lab" transform="translate(0 11)">2</text>
							</g>
							<g class="a5 leaf node n3 p0 sample" transform="translate(19 15.5649)">
								<path class="edge" d="M 0 0 V -15.5649 H -19"/>
								<rect class="sym" height="6" width="6" x="-3" y="-3"/>
								<text class="lab" transform="translate(0 11)">3</text>
							</g>
							<path class="edge" d="M 0 0 V -111.724 H -38"/>
							<g class="mut m2 s0" transform="translate(0 -55.862)">
								<line x1="0" x2="0" y1="0" y2="55.862"/>
								<path class="sym" d="M -3,-3 l 6,6 M -3,3 l 6,-6"/>
								<text class="lab rgt" transform="translate(5 0)">2</text>
							</g>
							<circle class="sym" cx="0" cy="0" r="3"/>
							<text class="lab rgt" transform="translate(3 -7.0)">5</text>
						</g>
						<path class="edge" d="M 0 0 V -15.9111 H 0"/>
						<g class="mut m0 s0" transform="translate(0 -10.6074)">
							<line x1="0" x2="0" y1="0" y2="10.6074"/>
							<path class="sym" d="M -3,-3 l 6,6 M -3,3 l 6,-6"/>
							<text class="lab rgt" transform="translate(5 0)">0</text>
						</g>
						<g class="mut m1 s0" transform="translate(0 -5.3037)">
							<line x1="0" x2="0" y1="0" y2="5.3037"/>
							<path class="sym" d="M -3,-3 l 6,6 M -3,3 l 6,-6"/>
							<text class="lab rgt" transform="translate(5 0)">1</text>
						</g>
						<circle class="sym" cx="0" cy="0" r="3"/>
						<text class="lab rgt" transform="translate(3 -7.0)">9</text>
					</g>
				</g>
			</g>
			<g class="tree t1" transform="translate(212 0)">
				<g class="plotbox">
					<g class="m5 node n7 p0 root s2" transform="translate(96 78.7771)">
						<g class="a7 m3 m4 node n4 p0 s1" transform="translate(-38 72.8183)">
							<g class="a4 leaf node n0 p0 sample" transform="translate(-19 1.60461)">
								<path class="edge" d="M 0 0 V -1.60461 H 19"/>
								<rect class="sym" height="6" width="6" x="-3" y="-3"/>
								<text class="lab" transform="translate(0 11)">0</text>
							</g>
							<g class="a4 leaf node n1 p0 sample" transform="translate(19 1.60461)">
								<path class="edge" d="M 0 0 V -1.60461 H -19"/>
								<rect class="sym" height="6" width="6" x="-3" y="-3"/>
								<text class="lab" transform="translate(0 11)">1</text>
							</g>
							<path class="edge" d="M 0 0 V -72.8183 H 38"/>
							<g class="mut m3 s1" transform="translate(0 -48.5455)">
								<line x1="0" x2="0" y1="0" y2="48.5455"/>
								<path class="sym" d="M -3,-3 l 6,6 M -3,3 l 6,-6"/>
								<text class="lab lft" transform="translate(-5 0)">3</text>
							</g>
							<g class="mut m4 s1" transform="translate(0 -24.2728)">
								<line x1="0" x2="0" y1="0" y2="24.2728"/>
								<path class="sym" d="M -3,-3 l 6,6 M -3,3 l 6,-6"/>
								<text class="lab lft" transform="translate(-5 0)">4</text>
							</g>
							<circle class="sym" cx="0" cy="0" r="3"/>
							<text class="lab lft" transform="translate(-3 -7.0)">4</text>
						</g>
						<g class="a7 node n5 p0" transform="translate(38 58.858)">
							<g class="a5 leaf node n2 p0 sample" transform="translate(-19 15.5649)">
								<path class="edge" d="M 0 0 V -15.5649 H 19"/>
								<rect class="sym" height="6" width="6" x="-3" y="-3"/>
								<text class="lab" transform="translate(0 11)">2</text>
							</g>
							<g class="a5 leaf node n3 p0 sample" transform="translate(19 15.5649)">
								<path class="edge" d="M 0 0 V -15.5649 H -19"/>
								<rect class="sym" height="6" width="6" x="-3" y="-3"/>
								<text class="lab" transform="translate(0 11)">3</text>
							</g>
							<path class="edge" d="M 0 0 V -58.858 H -38"/>
							<circle class="sym" cx="0" cy="0" r="3"/>
							<text class="lab rgt" transform="translate(3 -7.0)">5</text>
						</g>
						<path class="edge" d="M 0 0 V -15.9111 H 0"/>
						<g class="mut m5 s2" transform="translate(0 -7.95556)">
							<line x1="0" x2="0" y1="0" y2="7.95556"/>
							<path class="sym" d="M -3,-3 l 6,6 M -3,3 l 6,-6"/>
							<text class="lab rgt" transform="translate(5 0)">5</text>
						</g>
						<circle class="sym" cx="0" cy="0" r="3"/>
						<text class="lab rgt" transform="translate(3 -7.0)">7</text>
					</g>
				</g>
			</g>
			<g class="tree t2" transform="translate(404 0)">
				<g class="plotbox">
					<g class="node n6 p0 root" transform="translate(96 128.675)">
						<g class="a6 node n4 p0" transform="translate(-38 22.9204)">
							<g class="a4 leaf node n0 p0 sample" transform="translate(-19 1.60461)">
								<path class="edge" d="M 0 0 V -1.60461 H 19"/>
								<rect class="sym" height="6" width="6" x="-3" y="-3"/>
								<text class="lab" transform="translate(0 11)">0</text>
							</g>
							<g class="a4 leaf node n1 p0 sample" transform="translate(19 1.60461)">
								<path class="edge" d="M 0 0 V -1.60461 H -19"/>
								<rect class="sym" height="6" width="6" x="-3" y="-3"/>
								<text class="lab" transform="translate(0 11)">1</text>
							</g>
							<path class="edge" d="M 0 0 V -22.9204 H 38"/>
							<circle class="sym" cx="0" cy="0" r="3"/>
							<text class="lab lft" transform="translate(-3 -7.0)">4</text>
						</g>
						<g class="a6 node n5 p0" transform="translate(38 8.96007)">
							<g class="a5 leaf node n2 p0 sample" transform="translate(-19 15.5649)">
								<path class="edge" d="M 0 0 V -15.5649 H 19"/>
								<rect class="sym" height="6" width="6" x="-3" y="-3"/>
								<text class="lab" transform="translate(0 11)">2</text>
							</g>
							<g class="a5 leaf node n3 p0 sample" transform="translate(19 15.5649)">
								<path class="edge" d="M 0 0 V -15.5649 H -19"/>
								<rect class="sym" height="6" width="6" x="-3" y="-3"/>
								<text class="lab" transform="translate(0 11)">3</text>
							</g>
							<path class="edge" d="M 0 0 V -8.96007 H -38"/>
							<circle class="sym" cx="0" cy="0" r="3"/>
							<text class="lab rgt" transform="translate(3 -7.0)">5</text>
						</g>
						<path class="edge" d="M 0 0 V -15.9111 H 0"/>
						<circle class="sym" cx="0" cy="0" r="3"/>
						<text class="lab rgt" transform="translate(3 -7.0)">6</text>
					</g>
				</g>
			</g>
			<g class="tree t3" transform="translate(596 0)">
				<g class="plotbox">
					<g class="node n7 p0 root" transform="translate(96 78.7771)">
						<g class="a7 node n4 p0" transform="translate(-38 72.8183)">
							<g class="a4 leaf node n0 p0 sample" transform="translate(-19 1.60461)">
								<path class="edge" d="M 0 0 V -1.60461 H 19"/>
								<rect class="sym" height="6" width="6" x="-3" y="-3"/>
								<text class="lab" transform="translate(0 11)">0</text>
							</g>
							<g class="a4 leaf node n1 p0 sample" transform="translate(19 1.60461)">
								<path class="edge" d="M 0 0 V -1.60461 H -19"/>
								<rect class="sym" height="6" width="6" x="-3" y="-3"/>
								<text class="lab" transform="translate(0 11)">1</text>
							</g>
							<path class="edge" d="M 0 0 V -72.8183 H 38"/>
							<circle class="sym" cx="0" cy="0" r="3"/>
							<text class="lab lft" transform="translate(-3 -7.0)">4</text>
						</g>
						<g class="a7 node n5 p0" transform="translate(38 58.858)">
							<g class="a5 leaf node n2 p0 sample" transform="translate(-19 15.5649)">
								<path class="edge" d="M 0 0 V -15.5649 H 19"/>
								<rect class="sym" height="6" width="6" x="-3" y="-3"/>
								<text class="lab" transform="translate(0 11)">2</text>
							</g>
							<g class="a5 leaf node n3 p0 sample" transform="translate(19 15.5649)">
								<path class="edge" d="M 0 0 V -15.5649 H -19"/>
								<rect class="sym" height="6" width="6" x="-3" y="-3"/>
								<text class="lab" transform="translate(0 11)">3</text>
							</g>
							<path class="edge" d="M 0 0 V -58.858 H -38"/>
							<circle class="sym" cx="0" cy="0" r="3"/>
							<text class="lab rgt" transform="translate(3 -7.0)">5</text>
						</g>
						<path class="edge" d="M 0 0 V -15.9111 H 0"/>
						<circle class="sym" cx="0" cy="0" r="3"/>
						<text class="lab rgt" transform="translate(3 -7.0)">7</text>
					</g>
				</g>
			</g>
			<g class="tree t4" transform="translate(788 0)">
				<g class="plotbox">
					<g class="node n8 p0 root" transform="translate(96 61.0826)">
						<g class="a8 node n4 p0" transform="translate(-38 90.5128)">
							<g class="a4 leaf node n0 p0 sample" transform="translate(-19 1.60461)">
								<path class="edge" d="M 0 0 V -1.60461 H 19"/>
								<rect class="sym" height="6" width="6" x="-3" y="-3"/>
								<text class="lab" transform="translate(0 11)">0</text>
							</g>
							<g class="a4 leaf node n1 p0 sample" transform="translate(19 1.60461)">
								<path class="edge" d="M 0 0 V -1.60461 H -19"/>
								<rect class="sym" height="6" width="6" x="-3" y="-3"/>
								<text class="lab" transform="translate(0 11)">1</text>
							</g>
							<path class="edge" d="M 0 0 V -90.5128 H 38"/>
							<circle class="sym" cx="0" cy="0" r="3"/>
							<text class="lab lft" transform="translate(-3 -7.0)">4</text>
						</g>
						<g class="a8 node n5 p0" transform="translate(38 76.5525)">
							<g class="a5 leaf node n2 p0 sample" transform="translate(-19 15.5649)">
								<path class="edge" d="M 0 0 V -15.5649 H 19"/>
								<rect class="sym" height="6" width="6" x="-3" y="-3"/>
								<text class="lab" transform="translate(0 11)">2</text>
							</g>
							<g class="a5 leaf node n3 p0 sample" transform="translate(19 15.5649)">
								<path class="edge" d="M 0 0 V -15.5649 H -19"/>
								<rect class="sym" height="6" width="6" x="-3" y="-3"/>
								<text class="lab" transform="translate(0 11)">3</text>
							</g>
							<path class="edge" d="M 0 0 V -76.5525 H -38"/>
							<circle class="sym" cx="0" cy="0" r="3"/>
							<text class="lab rgt" transform="translate(3 -7.0)">5</text>
						</g>
						<path class="edge" d="M 0 0 V -15.9111 H 0"/>
						<circle class="sym" cx="0" cy="0" r="3"/>
						<text class="lab rgt" transform="translate(3 -7.0)">8</text>
					</g>
				</g>
			</g>
		</g>
	</g>
</svg>
